<?xml version="1.0" encoding="UTF-8"?>
<!-- Uploaded to: SVG Find, www.svgrepo.com, Generator: SVG Find Mixer Tools -->
<svg fill="#000000" width="800px" height="800px" version="1.1" viewBox="144 144 512 512" xmlns="http://www.w3.org/2000/svg">
 <path d="m423.49 248.05-67.211 250.93c-14.625 54.602 17.773 110.71 72.375 125.34 0 0 0.66016 0.17188 0 0 54.586 14.625 110.7-17.789 125.32-72.375l67.211-250.93c14.625-54.602-17.773-110.71-72.375-125.34-54.586-14.625-110.7 17.789-125.32 72.375zm-19.414 133.34 167.28 44.824-32.59 121.65c-12.375 46.191-59.844 73.621-106.05 61.246 3.8242 1.0234 0 0 0 0-46.191-12.375-73.602-59.859-61.23-106.05zm171.36 29.613-167.3-44.824 30.559-114.05c12.375-46.191 59.859-73.621 106.05-61.246s73.602 59.859 61.23 106.05l-30.543 114.07zm-388.94-184.19-0.30078 0.50391c-29.992 52.602-11.855 119.72 40.637 150.02 52.445 30.277 119.53 12.484 150.14-39.645 0.03125-0.0625 0.0625-0.125 0.10938-0.1875 0.015625-0.03125 0.03125-0.0625 0.046875-0.10938 0.09375-0.125 0.15625-0.26953 0.23438-0.39453 30.418-52.68 12.344-120.13-40.336-150.53-52.664-30.418-120.11-12.344-150.53 40.336zm9.7305 15.383 162.95 94.07c-27.805 39.582-81.789 52.082-124.47 27.441-42.684-24.641-58.852-77.648-38.477-121.51zm170.9 80.484-163.11-94.164c27.582-40.336 82.121-53.246 125.13-28.402 43.027 24.844 59.117 78.516 37.977 122.57z" fill-rule="evenodd"/>
</svg>