<?xml version="1.0" encoding="UTF-8"?>
<!-- Uploaded to: SVG Find, www.svgrepo.com, Generator: SVG Find Mixer Tools -->
<svg fill="#000000" width="800px" height="800px" version="1.1" viewBox="144 144 512 512" xmlns="http://www.w3.org/2000/svg">
 <g>
  <path d="m360.64 533.82h15.742v15.742h-15.742z"/>
  <path d="m392.12 533.82h15.742v15.742h-15.742z"/>
  <path d="m423.61 533.82h15.742v15.742h-15.742z"/>
  <path d="m462.98 203.2v-15.746h15.742v-15.742h-15.742v-15.746h-15.746v15.746h-15.742v15.742h15.742v15.746z"/>
  <path d="m588.93 313.41v-47.23h47.234v-47.234h-47.234v-47.23h-47.23v47.23h-47.234v47.234h47.234v47.23z"/>
  <path d="m306.56 575.23 88.715 67.227c2.8008 2.0977 6.6484 2.0977 9.4492 0l88.719-67.227h-0.003906c52.035-39.617 95.996-88.836 129.5-145 22.746-38.273 27.582-84.594 13.227-126.74l-14.957 5.1172c12.949 37.73 8.6289 79.254-11.809 113.51-32.422 54.434-74.992 102.14-125.4 140.52l-83.992 63.688-83.996-63.688c-50.41-38.379-92.98-86.082-125.4-140.52-14.395-24.25-20.809-52.41-18.336-80.504s13.703-54.703 32.113-76.07c19.645-22.551 48.023-35.594 77.934-35.816 30.047 0.10938 58.59 13.16 78.324 35.816l33.93 37.629c1.4922 1.6406 3.6094 2.5781 5.8242 2.5781 2.2188 0 4.3359-0.9375 5.8281-2.5781l33.93-37.629h-0.003907c5.9414-6.543 12.598-12.406 19.84-17.473l-8.9727-12.91h-0.003907c-8.2578 5.7031-15.816 12.359-22.512 19.836l-28.102 31.488-28.102-31.488h-0.003907c-22.703-25.973-55.484-40.914-89.977-41.012-34.363 0.19141-66.984 15.125-89.586 41.012-20.648 23.875-33.277 53.637-36.102 85.078-2.8281 31.441 4.2969 62.977 20.359 90.152 33.523 56.172 77.512 105.39 129.57 145z"/>
  <path d="m399.53 348.83c-10.699-6.5312-23.555-8.543-35.734-5.5898-12.184 2.9531-22.691 10.629-29.211 21.332l-44.793 73.762c-7.0391 10.688-9.4414 23.777-6.6523 36.27 2.7891 12.492 10.527 23.316 21.445 29.996 10.918 6.6836 24.078 8.6445 36.473 5.4453 12.391-3.2031 22.953-11.301 29.266-22.434l45.184-73.84h0.003906c6.5078-10.727 8.4805-23.602 5.4844-35.785-3-12.188-10.723-22.676-21.465-29.156zm2.2031 56.758-22.594 36.918-53.766-32.906 22.672-36.918c4.2969-7.2617 11.328-12.492 19.512-14.523 8.1875-2.0312 16.848-0.69531 24.039 3.7148 7.1914 4.4062 12.316 11.516 14.223 19.734 1.9023 8.2188 0.43359 16.855-4.0859 23.977z"/>
  <path d="m517.61 439.36c0-18.789-7.4648-36.812-20.75-50.098-13.285-13.285-31.309-20.75-50.098-20.75-4.043 0.03125-8.0703 0.42969-12.043 1.1797 5.2891 16.352 3.668 34.152-4.4883 49.277l79.508 52.586c5.1523-9.9492 7.8516-20.988 7.8711-32.195z"/>
  <path d="m501.07 484.7-78.719-52.191-30.938 50.617c13.211 16.836 33.328 26.801 54.727 27.105 21.402 0.30859 41.793-9.0781 55.48-25.531z"/>
 </g>
</svg>