<?xml version="1.0" encoding="UTF-8"?>
<!-- Uploaded to: SVG Find, www.svgrepo.com, Generator: SVG Find Mixer Tools -->
<svg fill="#000000" width="800px" height="800px" version="1.1" viewBox="144 144 512 512" xmlns="http://www.w3.org/2000/svg">
 <path d="m620.38 376.38h-120.21 0.003906c-3.6016 0-6.7422 2.4414-7.6289 5.9297l-30.23 118.78-34.484-243.89c-0.57422-3.5234-3.4414-6.2266-6.9922-6.5977-3.5508-0.37109-6.9141 1.6797-8.2031 5.0117l-71.41 196.41-33.766-132.69c-0.81641-3.0078-3.3203-5.2617-6.3984-5.7539-3.0781-0.49609-6.1641 0.86719-7.875 3.4727l-37.75 59.328h-75.812c-4.3008 0.066407-7.75 3.5703-7.75 7.8711 0 4.3008 3.4492 7.8047 7.75 7.8711h80.133c2.6914 0 5.1992-1.375 6.6445-3.6445l30.293-47.609 35.574 139.79c0.85156 3.3477 3.7852 5.7461 7.2344 5.918 3.4531 0.17188 6.6094-1.9219 7.793-5.168l69.359-190.78 35.656 252.16c0.52734 3.7227 3.6133 6.5547 7.3672 6.7578 3.7539 0.20312 7.1289-2.2734 8.0586-5.918l38.555-151.51h114.09c4.3008-0.066406 7.7461-3.5703 7.7461-7.8711 0-4.2969-3.4453-7.8008-7.7461-7.8711z"/>
</svg>