<!DOCTYPE svg PUBLIC "-//W3C//DTD SVG 1.1//EN" "http://www.w3.org/Graphics/SVG/1.1/DTD/svg11.dtd">
<!-- Uploaded to: SVG Find, www.svgrepo.com, Transformed by: SVG Find Mixer Tools -->
<svg fill="#000000" width="800px" height="800px" version="1.1" viewBox="144 144 512 512" xmlns="http://www.w3.org/2000/svg">
<g id="SVGRepo_bgCarrier" stroke-width="0"/>
<g id="SVGRepo_tracerCarrier" stroke-linecap="round" stroke-linejoin="round"/>
<g id="SVGRepo_iconCarrier"> <path d="m616.63 325.06h-105.92v-105.9c-0.007813-7.9453-3.168-15.566-8.7891-21.184-5.6172-5.6211-13.238-8.7812-21.184-8.7891h-89.934c-7.9492 0.007812-15.566 3.168-21.188 8.7891-5.6172 5.6172-8.7773 13.238-8.7891 21.184v105.9h-105.91c-7.9453 0.007812-15.566 3.1719-21.184 8.7891-5.6172 5.6211-8.7773 13.238-8.7852 21.184v54.164h-63.848c-4.2539 0-7.7031 3.4492-7.7031 7.7031 0 4.2578 3.4492 7.707 7.7031 7.707h63.848v20.359c0.007812 7.9453 3.168 15.562 8.7852 21.184 5.6172 5.6211 13.238 8.7812 21.184 8.7891h105.91v105.9c0.011719 7.9453 3.1719 15.566 8.7891 21.184 5.6211 5.6211 13.238 8.7812 21.188 8.7891h89.934c7.9453-0.007812 15.566-3.168 21.184-8.7891 5.6211-5.6172 8.7812-13.238 8.7891-21.184v-105.9h105.92c7.9453-0.007812 15.562-3.168 21.18-8.7891 5.6211-5.6211 8.7773-13.238 8.7891-21.184v-89.934c-0.011718-7.9453-3.168-15.562-8.7891-21.184-5.6172-5.6172-13.234-8.7812-21.18-8.7891zm-376.26 119.91v-20.359h56.457c3.0117 0 5.7422-1.7539 7-4.4883l20.469-44.52 28.535 79.211h0.003907c0.80859 2.2422 2.6133 3.9844 4.8867 4.7148h-102.8c-3.8594-0.007813-7.5547-1.543-10.281-4.2734-2.7266-2.7305-4.2617-6.4258-4.2656-10.285zm390.85 0h-0.003906c-0.003906 3.8594-1.5391 7.5586-4.2656 10.289-2.7305 2.7305-6.4297 4.2656-10.289 4.2695h-113.66c-4.2578 0-7.707 3.4531-7.707 7.7109v113.61c0 3.8594-1.5352 7.5625-4.2656 10.293-2.7305 2.7305-6.4297 4.2656-10.289 4.2695h-89.934c-3.8594-0.003906-7.5625-1.5391-10.293-4.2695-2.7266-2.7305-4.2617-6.4336-4.2656-10.293v-113.61c0-4.2578-3.4492-7.7109-7.707-7.7109h-6.0859c2.1602-0.6875 3.9062-2.293 4.7734-4.3867l40.922-99.172 39.543 162.36-0.003906 0.003906c0.80469 3.3086 3.6875 5.6953 7.0898 5.8672h0.39844c3.2578 0 6.1641-2.0508 7.2578-5.1211l40.203-113.19h76.18c4.2539 0 7.7031-3.4531 7.7031-7.707 0-4.2578-3.4492-7.707-7.7031-7.707h-81.641c-3.2617 0-6.168 2.0547-7.2578 5.1289l-33.387 94.023-39.035-160.25c-0.79297-3.2422-3.5781-5.6055-6.9023-5.8594-3.3281-0.25391-6.4375 1.6562-7.7148 4.7383l-42.324 102.57-28.16-78.164c-1.0625-2.9453-3.7969-4.9531-6.9219-5.0859-3.125-0.13281-6.0234 1.6367-7.3281 4.4805l-26.262 57.148h-51.516v-54.164c0.003906-3.8594 1.5391-7.5586 4.2695-10.289 2.7266-2.7266 6.4258-4.2617 10.289-4.2656h113.61c4.2578-0.003906 7.7031-3.4531 7.707-7.707v-113.61c0.003906-3.8594 1.5391-7.5625 4.2656-10.293 2.7305-2.7305 6.4336-4.2656 10.293-4.2695h89.934c3.8594 0.003906 7.5586 1.5391 10.289 4.2695s4.2656 6.4336 4.2656 10.293v113.61c0.003906 4.2539 3.4531 7.7031 7.707 7.707h113.63c3.8594 0.003907 7.5586 1.5391 10.289 4.2656 2.7266 2.7305 4.2617 6.4297 4.2656 10.289z"/> </g>
</svg>